<svg width="65" height="65" viewBox="0 0 65 65" fill="none" xmlns="http://www.w3.org/2000/svg">
<path opacity="0.2" d="M32.75 54.5337C44.9003 54.5337 54.75 44.684 54.75 32.5337C54.75 20.3834 44.9003 10.5337 32.75 10.5337C20.5997 10.5337 10.75 20.3834 10.75 32.5337C10.75 44.684 20.5997 54.5337 32.75 54.5337Z" fill="#E8AA00"/>
<path d="M32.75 20.5337V32.5337" stroke="#E8AA00" stroke-width="4" stroke-linecap="round" stroke-linejoin="round"/>
<path d="M43.1423 38.5337L32.75 32.5337" stroke="#E8AA00" stroke-width="4" stroke-linecap="round" stroke-linejoin="round"/>
<path d="M46.792 25.4629H56.792V15.4629" stroke="#E8AA00" stroke-width="4" stroke-linecap="round" stroke-linejoin="round"/>
<path d="M48.3064 48.0901C45.2296 51.1668 41.3096 53.2621 37.042 54.111C32.7744 54.9599 28.3509 54.5242 24.331 52.8591C20.311 51.1939 16.8751 48.3741 14.4577 44.7562C12.0403 41.1384 10.75 36.8849 10.75 32.5337C10.75 28.1825 12.0403 23.929 14.4577 20.3112C16.8751 16.6933 20.311 13.8735 24.331 12.2084C28.3509 10.5432 32.7744 10.1076 37.042 10.9564C41.3096 11.8053 45.2296 13.9006 48.3064 16.9774L56.7916 25.4626" stroke="#E8AA00" stroke-width="4" stroke-linecap="round" stroke-linejoin="round"/>
</svg>
