<svg width="49" height="48" viewBox="0 0 49 48" fill="none" xmlns="http://www.w3.org/2000/svg">
<g clip-path="url(#clip0_10_1043)">
<path fill-rule="evenodd" clip-rule="evenodd" d="M30.2927 44.6732V37.9628L24.4828 34.6455L18.7247 37.9666C18.7257 40.1602 18.7103 42.4522 18.7271 44.677L24.4857 48.0001L30.2927 44.6727V44.6732Z" fill="#FFD452"/>
<path fill-rule="evenodd" clip-rule="evenodd" d="M13.978 42.7138L18.7228 37.9685L16.9602 31.5149L10.5402 29.7917C8.98984 31.3436 7.35831 32.9535 5.79688 34.5385L7.51911 40.9599L13.978 42.7133V42.7138Z" fill="#FFD452"/>
<path fill-rule="evenodd" clip-rule="evenodd" d="M3.82736 29.7927H10.5378L13.855 23.9828L10.5339 18.2247C8.34032 18.2257 6.04832 18.2103 3.82352 18.2271L0.5 23.9857L3.82736 29.7927Z" fill="#FFD452"/>
<path fill-rule="evenodd" clip-rule="evenodd" d="M5.78613 13.478L10.5314 18.2228L16.985 16.4602L18.7082 10.0402C17.1564 8.48984 15.5465 6.85831 13.9615 5.29688L7.54005 7.01911L5.78661 13.478H5.78613Z" fill="#FFD452"/>
<path fill-rule="evenodd" clip-rule="evenodd" d="M18.7073 3.32736V10.0378L24.5172 13.355L30.2753 10.0339C30.2743 7.84032 30.2897 5.54832 30.2729 3.32352L24.5143 0L18.7073 3.32736Z" fill="#FFD452"/>
<path fill-rule="evenodd" clip-rule="evenodd" d="M35.0221 5.28613L30.2773 10.0314L32.0399 16.485L38.4599 18.2082C40.0103 16.6564 41.6418 15.0465 43.2033 13.4615L41.481 7.04005L35.0221 5.28661V5.28613Z" fill="#FFD452"/>
<path fill-rule="evenodd" clip-rule="evenodd" d="M45.1727 18.2073H38.4623L35.145 24.0172L38.4661 29.7753C40.6597 29.7743 42.9517 29.7897 45.1765 29.7729L48.4996 24.0143L45.1722 18.2073H45.1727Z" fill="#FFD452"/>
<path fill-rule="evenodd" clip-rule="evenodd" d="M43.2138 34.5221L38.4685 29.7773L32.0149 31.5399L30.2917 37.9599C31.8436 39.5103 33.4535 41.1418 35.0385 42.7033L41.4599 40.981L43.2133 34.5221H43.2138Z" fill="#FFD452"/>
</g>
<defs>
<clipPath id="clip0_10_1043">
<rect width="48" height="48" fill="white" transform="translate(0.5)"/>
</clipPath>
</defs>
</svg>
