<svg width="48" height="49" viewBox="0 0 48 49" fill="none" xmlns="http://www.w3.org/2000/svg">
<g clip-path="url(#clip0_10_1276)">
<path fill-rule="evenodd" clip-rule="evenodd" d="M29.7927 45.2069V38.4965L23.9828 35.1792L18.2247 38.5003C18.2257 40.6939 18.2103 42.9859 18.2271 45.2107L23.9857 48.5338L29.7927 45.2064V45.2069Z" fill="#FFD452"/>
<path fill-rule="evenodd" clip-rule="evenodd" d="M13.478 43.2473L18.2228 38.502L16.4602 32.0484L10.0402 30.3252C8.48984 31.877 6.85831 33.487 5.29688 35.0719L7.01911 41.4934L13.478 43.2468V43.2473Z" fill="#FFD452"/>
<path fill-rule="evenodd" clip-rule="evenodd" d="M3.32736 30.3264H10.0378L13.355 24.5165L10.0339 18.7584C7.84032 18.7594 5.54832 18.744 3.32352 18.7608L0 24.5194L3.32736 30.3264Z" fill="#FFD452"/>
<path fill-rule="evenodd" clip-rule="evenodd" d="M5.28613 14.0117L10.0314 18.7565L16.485 16.9939L18.2082 10.5739C16.6564 9.02353 15.0465 7.39201 13.4615 5.83057L7.04005 7.55281L5.28661 14.0117H5.28613Z" fill="#FFD452"/>
<path fill-rule="evenodd" clip-rule="evenodd" d="M18.2073 3.86105V10.5715L24.0172 13.8887L29.7753 10.5676C29.7743 8.37401 29.7897 6.08201 29.7729 3.85721L24.0143 0.533691L18.2073 3.86105Z" fill="#FFD452"/>
<path fill-rule="evenodd" clip-rule="evenodd" d="M34.5221 5.81982L29.7773 10.5651L31.5399 17.0187L37.9599 18.7419C39.5103 17.1901 41.1418 15.5801 42.7033 13.9952L40.981 7.57374L34.5221 5.8203V5.81982Z" fill="#FFD452"/>
<path fill-rule="evenodd" clip-rule="evenodd" d="M44.6727 18.7412H37.9623L34.645 24.5511L37.9661 30.3092C40.1597 30.3083 42.4517 30.3236 44.6765 30.3068L47.9996 24.5483L44.6722 18.7412H44.6727Z" fill="#FFD452"/>
<path fill-rule="evenodd" clip-rule="evenodd" d="M42.7138 35.0558L37.9685 30.311L31.5149 32.0736L29.7917 38.4936C31.3436 40.044 32.9535 41.6755 34.5385 43.237L40.9599 41.5147L42.7133 35.0558H42.7138Z" fill="#FFD452"/>
</g>
<defs>
<clipPath id="clip0_10_1276">
<rect width="48" height="48" fill="white" transform="translate(0 0.533691)"/>
</clipPath>
</defs>
</svg>
